<svg width="13" height="12" viewBox="0 0 13 12" fill="none" xmlns="http://www.w3.org/2000/svg">
<path d="M10.5161 2.2277C10.4943 2.17501 10.462 2.12563 10.4193 2.08271C10.4187 2.08207 10.4181 2.08143 10.4174 2.0808C10.3361 1.99993 10.224 1.94995 10.1002 1.94995H4.1002C3.85167 1.94995 3.6502 2.15142 3.6502 2.39995C3.6502 2.64848 3.85167 2.84995 4.1002 2.84995H9.0138L2.582 9.28175C2.40626 9.45749 2.40626 9.74241 2.582 9.91815C2.75773 10.0939 3.04266 10.0939 3.21839 9.91815L9.6502 3.48635V8.39995C9.6502 8.64848 9.85167 8.84995 10.1002 8.84995C10.3487 8.84995 10.5502 8.64848 10.5502 8.39995V2.39995C10.5502 2.33894 10.5381 2.28076 10.5161 2.2277Z" fill="#2E6FF2"/>
</svg>
